<?xml version="1.0" encoding="UTF-8"?>
<!-- Generated by Pixelmator Pro 3.5.6 -->
<svg width="1362" height="628" viewBox="0 0 1362 628" xmlns="http://www.w3.org/2000/svg">
    <path id="whitelogo" fill="#ffffff" fill-rule="evenodd" stroke="#1a1919" stroke-width="8.971755" d="M 89.838501 184.115662 C 107.881104 222.415649 124.389648 262.249756 144.297485 299.761139 C 171.717407 314.329041 202.626465 325.407806 232.049438 339.049347 C 276.224854 358.393799 320.54541 377.593353 365.768921 396.966492 C 387.368286 406.947571 410.137329 415.759216 432.147339 426.406433 C 442.711426 431.273621 453.108032 436.308594 465.406006 441.031311 C 470.055542 449.239502 468.396362 473.176147 464.370117 483.562744 C 369.501953 438.008301 269.050171 398.352661 171.856567 355.01593 C 171.856567 355.01593 169.871094 356.01001 169.586182 356.294861 C 186.397461 392.955261 203.31543 429.508911 220.01416 467.358459 C 229.723389 477.387085 247.035767 479.812622 260.313477 487.349304 C 309.284912 508.716431 358.767822 529.572205 408.611206 551.14386 C 458.696411 571.397217 505.087646 595.344604 556.192627 614.578247 C 557.450806 614.396606 557.450806 614.396606 557.450806 614.396606 L 560.680664 614.396606 C 560.680664 555.182922 560.680664 495.96936 560.680664 436.755798 C 561.757202 435.679138 562.833862 435.679138 563.910522 435.679138 C 586.118774 452.228943 604.904663 471.12439 624.0271 489.68335 C 643.907959 508.560364 661.671265 528.478516 679.430298 548.400818 C 680.363892 545.672913 682.696533 546.928955 683.414307 546.570068 C 720.026733 507.819702 755.2677 468.774658 796.198242 435.419006 C 798.611694 435.679138 799.688232 435.679138 800.764771 435.679138 C 800.764771 495.251648 800.764771 553.747498 800.764771 612.243286 C 854.497559 594.919739 901.779175 571.145081 952.463745 550.773315 C 1002.809692 529.345215 1051.112183 506.950378 1101.403809 486.544556 C 1114.334839 478.661072 1132.611206 477.199585 1141.204712 466.055359 C 1157.489868 427.433228 1175.739746 391.8526 1192.099731 354.38208 C 1091.668579 396.78125 992.795837 439.662231 893.863892 482.483948 C 893.729736 464.765137 886.907471 439.281799 903.52417 437.237122 C 916.923462 430.89856 929.819092 425.132935 942.824463 419.477112 C 969.49353 407.746948 995.348755 396.279724 1021.404541 385.013 C 1074.822388 361.991486 1127.539917 339.346313 1179.87439 316.318085 C 1194.057373 308.251099 1213.148926 306.169189 1221.116577 292.963684 C 1228.309326 275.035431 1236.366333 259.048218 1243.89502 242.532562 C 1253.09375 223.021667 1261.825562 204.120422 1270.841675 185.503601 C 1271.243652 185.905518 1272.32019 183.752289 1272.32019 183.752289 C 1274.832275 180.163605 1267.654907 186.264404 1269.009766 182.586884 C 1144.053345 236.748444 1020.078064 291.765076 892.193359 346.728271 C 893.999268 332.038391 887.668457 306.34549 898.738159 298.951447 C 916.273438 289.212585 937.289429 282.954346 956.814209 274.128387 C 975.960815 266.000885 994.949951 257.715912 1013.864197 249.356018 L 1014.787842 249.203064 C 1106.233276 208.58432 1199.385742 169.672485 1292.639893 130.862457 C 1299.211304 128.10318 1299.965454 120.603271 1303.2854 115.66925 C 1318.185669 82.718201 1333.787476 51.973816 1347.178711 18.402405 C 1330.115479 21.028931 1318.890381 27.225708 1304.120605 32.670654 C 1290.012939 38.518005 1276.721802 44.246887 1263.300537 49.845703 C 1235.41272 61.792542 1207.918335 73.056091 1180.66394 84.559692 C 1126.620239 109.467529 1069.746582 130.468597 1015.020203 153.617065 C 1015.010315 153.607208 1013.933716 153.607208 1014.402527 154.075989 C 980.467773 169.306458 945.874878 183.878815 910.776123 199.02179 C 888.138062 212.988586 858.130249 219.58548 836.431152 235.56778 C 803.41333 257.815948 782.139404 291.808136 756.819824 322.831085 C 744.667114 338.311432 733.014648 354.291931 720.65332 370.640259 C 707.445068 385.065033 697.345703 402.598572 679.45105 414.880432 C 666.464844 406.334351 659.038452 392.228516 648.530762 380.127441 C 610.693726 335.424316 580.602905 282.974976 535.803833 244.157318 C 500.78479 217.091797 452.459839 203.332275 409.989746 182.641174 C 347.255127 152.069458 278.668823 127.349579 212.757813 98.877686 C 148.105591 70.223694 81.647339 43.375732 13.845581 15.229126 C 14.964722 28.005798 21.415771 34.780334 25.035522 45.43927 C 38.226685 72.800415 50.005249 101.574158 64.082397 129.125977 C 136.927246 159.276917 207.824219 191.37561 281.020874 222.251465 C 316.385254 238.205475 352.382935 253.526093 389.186401 269.117645 C 407.438232 276.345734 424.985107 284.278595 443.639648 292.18045 C 451.907593 296.472961 461.338623 299.602325 466.62439 307.953674 C 467.587158 319.551483 466.652222 333.046783 465.46167 345.721191 C 341.51416 290.951324 217.930908 235.8172 91.948608 183.082123 C 91.948608 183.082123 90.201904 183.752289 89.838501 184.115662 Z"/>
</svg>
