

<svg width="858" height="auto" viewBox="0 0 858 386" fill="none" xmlns="http://www.w3.org/2000/svg"><path fill-rule="evenodd" clip-rule="evenodd" d="M564.19 183.79L822.45 74.69L857.02 0L538.3 134.64C524.75 140.36 512.89 149.46 503.85 161.07L428.51 257.82L353.16 161.07C344.12 149.47 332.26 140.37 318.71 134.64L0 0L34.57 74.69L292.83 183.79V211.75L50.65 109.44L85.22 184.13L292.83 271.83V299.79L101.31 218.88L135.89 293.57L353.6 385.55V262.04L428.51 358.21L503.43 262.04V385.56L721.14 293.58L755.72 218.89L564.2 299.8V271.84L771.81 184.14L806.38 109.45L564.19 211.75V183.79ZM800.397 115.234L561.19 216.274V181.801L820.214 72.3777L851.037 5.78413L539.467 137.404C526.39 142.924 514.942 151.707 506.217 162.913L428.51 262.703L350.794 162.914C342.068 151.718 330.621 142.934 317.543 137.404L317.542 137.403L5.98297 5.78424L36.8055 72.3777L295.83 181.801V216.274L56.633 115.224L87.4555 181.818L295.83 269.841V304.314L107.294 224.665L138.125 291.258L350.6 381.026V253.307L428.51 353.328L506.43 253.308V381.036L718.905 291.268L749.736 224.675L561.2 304.324V269.851L769.574 181.828L800.397 115.234Z" fill="url(#paint0_radial_26_3)"></path><defs><radialGradient id="paint0_radial_26_3" cx="0" cy="0" r="1" gradientUnits="userSpaceOnUse" gradientTransform="translate(438 -4.93382e-06) rotate(90.8991) scale(573.571 5637.47)"><stop stop-color="#20DC8E"></stop><stop offset="0.984375" stop-color="#085B64"></stop></radialGradient></defs></svg>
